# xmcd
#
# Track frame offsets: 
#        150
#        16373
#        32710
#        51969
#        67529
#        81477
#        94505
#        130745
#        152146
#        172879
#        191081
#        202391
#
# Disc length: 3099 seconds
#
# Revision: 0
# Processed by: cddbd v1.5.2PL0 Copyright (c) Steve Scherf et al.
# Submitted via: ExactAudioCopy v0.99pb5
#
DISCID=9c0c190c
DTITLE=Essie Mae Brooks - Rainin Your Life
DYEAR=2005
DGENRE=Gospel
TTITLE0=Feel Like My Time Ain't Long
TTITLE1=Rain In Your Life
TTITLE2=Got To Run On
TTITLE3=Don't Put Off Today, Until Tomorrow
TTITLE4=One Of These Mornings
TTITLE5=Lay Your Hand On Me
TTITLE6=I Wrote You A Letter
TTITLE7=Mother, Heard A Voice
TTITLE8=Look, Where He Brought Me From
TTITLE9=Satan, Take Your Hands Off Me
TTITLE10=I Got So Much To Talk About
TTITLE11=Save The Children
EXTD=
EXTT0=
EXTT1=
EXTT2=
EXTT3=
EXTT4=
EXTT5=
EXTT6=
EXTT7=
EXTT8=
EXTT9=
EXTT10=
EXTT11=
PLAYORDER=
